<svg xmlns="http://www.w3.org/2000/svg" viewBox="0 0 48 48" fill-rule="evenodd" clip-rule="evenodd">
  <style>
    .oa-dark{display:none}
    @media (prefers-color-scheme:dark){.oa-light{display:none}.oa-dark{display:block}}
  </style>
  <g class="oa-light">
    <path d="M46.5,6.064l0,35.872c0,2.519 -2.045,4.564 -4.564,4.564l-35.872,0c-2.519,0 -4.564,-2.045 -4.564,-4.564l0,-35.872c0,-2.519 2.045,-4.564 4.564,-4.564l35.872,0c2.519,0 4.564,2.045 4.564,4.564Z" fill="#fafaf8"/>
    <path d="M42.524,26.019c0.054,0 0.105,0.023 0.14,0.063c0.036,0.04 0.052,0.094 0.046,0.147c-1.119,9.161 -9.047,16.271 -18.647,16.271c-10.366,0 -18.782,-8.29 -18.782,-18.5c0,-10.21 8.416,-18.5 18.782,-18.5c3.965,-0 8.09,1.37 10.711,3.294c0.12,0.089 0.165,0.248 0.109,0.387c-0.927,2.296 -8.389,20.765 -9.568,23.682c-0.035,0.087 -0.025,0.185 0.028,0.263c0.052,0.078 0.14,0.124 0.234,0.124l3.95,0c0.115,-0 0.218,-0.07 0.261,-0.176c0.763,-1.889 7.427,-18.382 8.41,-20.815c0.03,-0.074 0.095,-0.128 0.174,-0.143c0.078,-0.015 0.159,0.011 0.214,0.069c0.929,0.987 3.712,5.053 4.131,9.591c0.005,0.052 -0.013,0.104 -0.049,0.143c-0.036,0.039 -0.086,0.061 -0.138,0.061c-0.929,0 -4.709,0 -4.709,0c-1.114,0 -2.019,0.905 -2.019,2.019c0,1.114 0.905,2.019 2.019,2.019l4.703,-0Z" fill="#0a0a0a"/>
  </g>
  <g class="oa-dark">
    <path d="M46.5,5.9l0,36.199c0,2.429 -1.972,4.4 -4.4,4.4l-36.199,0c-2.429,0 -4.4,-1.972 -4.4,-4.4l0,-36.199c0,-2.429 1.972,-4.4 4.4,-4.4l36.199,0c2.429,0 4.4,1.972 4.4,4.4Z" fill="#0a0a0a"/>
    <path d="M42.515,26.16c0.054,0 0.105,0.023 0.141,0.064c0.036,0.04 0.052,0.094 0.045,0.148c-1.183,9.092 -9.078,16.129 -18.629,16.129c-10.366,0 -18.782,-8.29 -18.782,-18.5c0,-10.21 8.416,-18.5 18.782,-18.5c3.912,0 8.029,1.327 10.593,3.211c0.12,0.089 0.164,0.248 0.108,0.387c-0.932,2.307 -8.473,20.973 -9.658,23.906c-0.035,0.087 -0.025,0.185 0.028,0.263c0.052,0.078 0.14,0.124 0.234,0.124l4.254,0c0.115,-0 0.218,-0.07 0.261,-0.176c0.764,-1.891 7.438,-18.409 8.419,-20.838c0.03,-0.075 0.096,-0.128 0.175,-0.143c0.079,-0.015 0.16,0.012 0.215,0.071c0.905,0.991 3.581,5.094 4.007,9.329c0.005,0.053 -0.012,0.105 -0.048,0.144c-0.036,0.039 -0.086,0.061 -0.139,0.061c-0.929,0 -4.691,0 -4.691,0c-1.192,0 -2.16,0.968 -2.16,2.16c0,1.192 0.968,2.16 2.16,2.16l4.685,0Z" fill="#fafaf8"/>
  </g>
</svg>
